<svg width="240" height="240" viewBox="0 0 240 240" fill="none" xmlns="http://www.w3.org/2000/svg">
<rect width="240" height="240" rx="60" fill="#0A64EB"/>
<rect x="96" y="54" width="48" height="132" rx="24" fill="white" fill-opacity="0.24"/>
<path d="M120 186C106.745 186 96 175.255 96 162V150C96 123.49 117.49 102 144 102V102V162C144 175.255 133.255 186 120 186V186Z" fill="white" fill-opacity="0.48"/>
<path d="M120 186C133.255 186 144 175.255 144 162V150C144 123.49 122.51 102 96 102V102V162C96 175.255 106.745 186 120 186V186Z" fill="white" fill-opacity="0.48"/>
<path fill-rule="evenodd" clip-rule="evenodd" d="M144 162.155C143.916 175.339 133.203 186 120 186C107.926 186 97.9344 177.084 96.25 165.477C96.0853 164.342 96 163.181 96 162C96 162 96 162 96 162V150C96 132.233 105.653 116.721 120 108.422C134.347 116.721 144 132.233 144 150V162C144 162.052 144 162.104 144 162.155Z" fill="white"/>
<path fill-rule="evenodd" clip-rule="evenodd" d="M72 54C58.7452 54 48 64.7452 48 78C48 91.2548 58.7452 102 72 102H96V78C96 64.7452 106.745 54 120 54C133.255 54 144 64.7452 144 78V102H168C181.255 102 192 91.2548 192 78C192 64.7452 181.255 54 168 54H120H72Z" fill="white"/>
<rect x="102" y="60" width="36" height="36" rx="18" fill="white"/>
</svg>
