<svg width="144" height="132" viewBox="0 0 144 132" fill="none" xmlns="http://www.w3.org/2000/svg">
<rect x="48" width="48" height="132" rx="24" fill="white" fill-opacity="0.24"/>
<path d="M72 132C58.7452 132 48 121.255 48 108V96C48 69.4903 69.4903 48 96 48V48V108C96 121.255 85.2548 132 72 132V132Z" fill="white" fill-opacity="0.48"/>
<path d="M72 132C85.2548 132 96 121.255 96 108V96C96 69.4903 74.5097 48 48 48V48V108C48 121.255 58.7452 132 72 132V132Z" fill="white" fill-opacity="0.48"/>
<path fill-rule="evenodd" clip-rule="evenodd" d="M48 108C48 121.255 58.7452 132 72 132C85.2548 132 96 121.255 96 108V96.0001C96 78.2333 86.3472 62.7211 72 54.4216C57.6528 62.7211 48 78.2333 48 96.0001V108Z" fill="white"/>
<path fill-rule="evenodd" clip-rule="evenodd" d="M24 0C10.7452 0 0 10.7452 0 24C0 37.2548 10.7452 48 24 48H48V24C48 10.7452 58.7452 0 72 0C85.2548 0 96 10.7452 96 24V48H120C133.255 48 144 37.2548 144 24C144 10.7452 133.255 0 120 0H72H24Z" fill="white"/>
<rect x="54" y="6" width="36" height="36" rx="18" fill="white"/>
</svg>
