<svg width="295" height="69" viewBox="0 0 295 69" fill="none" xmlns="http://www.w3.org/2000/svg">
<g clip-path="url(#clip0)">
<path d="M24 24C24 20.6863 21.3137 18 18 18C14.6863 18 12 20.6863 12 24V45C12 48.3137 14.6863 51 18 51C21.3137 51 24 48.3137 24 45V24Z" fill="#0A64EB" fill-opacity="0.24"/>
<path d="M18 51C14.6863 51 12 48.3138 12 45V42C12 35.3726 17.3726 30 24 30V45C24 48.3138 21.3137 51 18 51Z" fill="#0A64EB" fill-opacity="0.48"/>
<path d="M18 51C21.3137 51 24 48.3138 24 45V42C24 35.3726 18.6274 30 12 30V45C12 48.3138 14.6863 51 18 51Z" fill="#0A64EB" fill-opacity="0.48"/>
<path fill-rule="evenodd" clip-rule="evenodd" d="M12 44.9999C12 48.3137 14.6863 50.9999 18 50.9999C21.3137 50.9999 24 48.3137 24 44.9999V42C24 37.5583 21.5868 33.6802 18 31.6053C14.4132 33.6802 12 37.5583 12 42V44.9999Z" fill="#0A64EB"/>
<path fill-rule="evenodd" clip-rule="evenodd" d="M6 18C2.6863 18 0 20.6863 0 24C0 27.3137 2.6863 30 6 30H12V24C12 20.6863 14.6863 18 18 18C21.3137 18 24 20.6863 24 24V30H30C33.3138 30 36 27.3137 36 24C36 20.6863 33.3138 18 30 18H18H6Z" fill="#0A64EB"/>
<path d="M22.5 24C22.5 21.5147 20.4853 19.5 18 19.5C15.5147 19.5 13.5 21.5147 13.5 24C13.5 26.4853 15.5147 28.5 18 28.5C20.4853 28.5 22.5 26.4853 22.5 24Z" fill="#0A64EB"/>
</g>
<path d="M65.61 23.85V28.53H59.97V45H54.09V28.53H48.51V23.85H65.61ZM83.8655 36.39C83.8655 36.85 83.8355 37.31 83.7755 37.77H72.6455C72.7055 38.69 72.9555 39.38 73.3955 39.84C73.8555 40.28 74.4355 40.5 75.1355 40.5C76.1155 40.5 76.8155 40.06 77.2355 39.18H83.5055C83.2455 40.34 82.7355 41.38 81.9755 42.3C81.2355 43.2 80.2955 43.91 79.1555 44.43C78.0155 44.95 76.7555 45.21 75.3755 45.21C73.7155 45.21 72.2355 44.86 70.9355 44.16C69.6555 43.46 68.6455 42.46 67.9055 41.16C67.1855 39.86 66.8255 38.33 66.8255 36.57C66.8255 34.81 67.1855 33.29 67.9055 32.01C68.6255 30.71 69.6255 29.71 70.9055 29.01C72.2055 28.31 73.6955 27.96 75.3755 27.96C77.0355 27.96 78.5055 28.3 79.7855 28.98C81.0655 29.66 82.0655 30.64 82.7855 31.92C83.5055 33.18 83.8655 34.67 83.8655 36.39ZM77.8655 34.92C77.8655 34.2 77.6255 33.64 77.1455 33.24C76.6655 32.82 76.0655 32.61 75.3455 32.61C74.6255 32.61 74.0355 32.81 73.5755 33.21C73.1155 33.59 72.8155 34.16 72.6755 34.92H77.8655ZM85.3118 36.57C85.3118 34.83 85.6718 33.31 86.3918 32.01C87.1118 30.71 88.1118 29.71 89.3918 29.01C90.6918 28.31 92.1718 27.96 93.8318 27.96C95.9718 27.96 97.7718 28.55 99.2318 29.73C100.692 30.89 101.632 32.52 102.052 34.62H95.8118C95.4518 33.52 94.7518 32.97 93.7118 32.97C92.9718 32.97 92.3818 33.28 91.9418 33.9C91.5218 34.5 91.3118 35.39 91.3118 36.57C91.3118 37.75 91.5218 38.65 91.9418 39.27C92.3818 39.89 92.9718 40.2 93.7118 40.2C94.7718 40.2 95.4718 39.65 95.8118 38.55H102.052C101.632 40.63 100.692 42.26 99.2318 43.44C97.7718 44.62 95.9718 45.21 93.8318 45.21C92.1718 45.21 90.6918 44.86 89.3918 44.16C88.1118 43.46 87.1118 42.46 86.3918 41.16C85.6718 39.86 85.3118 38.33 85.3118 36.57ZM115.564 28.02C117.484 28.02 119.004 28.67 120.124 29.97C121.264 31.25 121.834 32.99 121.834 35.19V45H115.954V35.97C115.954 35.01 115.704 34.26 115.204 33.72C114.704 33.16 114.034 32.88 113.194 32.88C112.314 32.88 111.624 33.16 111.124 33.72C110.624 34.26 110.374 35.01 110.374 35.97V45H104.494V22.8H110.374V30.57C110.894 29.81 111.594 29.2 112.474 28.74C113.374 28.26 114.404 28.02 115.564 28.02Z" fill="black"/>
<path d="M130.941 23.85V45H125.061V23.85H130.941ZM145.299 28.02C147.239 28.02 148.779 28.67 149.919 29.97C151.059 31.25 151.629 32.99 151.629 35.19V45H145.749V35.97C145.749 35.01 145.499 34.26 144.999 33.72C144.499 33.16 143.829 32.88 142.989 32.88C142.109 32.88 141.419 33.16 140.919 33.72C140.419 34.26 140.169 35.01 140.169 35.97V45H134.289V28.17H140.169V30.57C140.689 29.81 141.389 29.2 142.269 28.74C143.149 28.26 144.159 28.02 145.299 28.02ZM165.866 28.02C167.806 28.02 169.346 28.67 170.486 29.97C171.626 31.25 172.196 32.99 172.196 35.19V45H166.316V35.97C166.316 35.01 166.066 34.26 165.566 33.72C165.066 33.16 164.396 32.88 163.556 32.88C162.676 32.88 161.986 33.16 161.486 33.72C160.986 34.26 160.736 35.01 160.736 35.97V45H154.856V28.17H160.736V30.57C161.256 29.81 161.956 29.2 162.836 28.74C163.716 28.26 164.726 28.02 165.866 28.02ZM183.252 45.21C181.572 45.21 180.062 44.86 178.722 44.16C177.402 43.46 176.362 42.46 175.602 41.16C174.842 39.86 174.462 38.33 174.462 36.57C174.462 34.83 174.842 33.31 175.602 32.01C176.382 30.71 177.432 29.71 178.752 29.01C180.092 28.31 181.602 27.96 183.282 27.96C184.962 27.96 186.462 28.31 187.782 29.01C189.122 29.71 190.172 30.71 190.932 32.01C191.712 33.31 192.102 34.83 192.102 36.57C192.102 38.31 191.712 39.84 190.932 41.16C190.172 42.46 189.122 43.46 187.782 44.16C186.442 44.86 184.932 45.21 183.252 45.21ZM183.252 40.11C184.072 40.11 184.752 39.81 185.292 39.21C185.852 38.59 186.132 37.71 186.132 36.57C186.132 35.43 185.852 34.56 185.292 33.96C184.752 33.36 184.082 33.06 183.282 33.06C182.482 33.06 181.812 33.36 181.272 33.96C180.732 34.56 180.462 35.43 180.462 36.57C180.462 37.73 180.722 38.61 181.242 39.21C181.762 39.81 182.432 40.11 183.252 40.11ZM202.564 39.45L205.714 28.17H211.984L206.194 45H198.874L193.084 28.17H199.354L202.564 39.45ZM213.017 36.57C213.017 34.83 213.327 33.31 213.947 32.01C214.587 30.71 215.447 29.71 216.527 29.01C217.627 28.31 218.847 27.96 220.187 27.96C221.347 27.96 222.347 28.19 223.187 28.65C224.027 29.11 224.677 29.73 225.137 30.51V28.17H231.017V45H225.137V42.66C224.677 43.44 224.017 44.06 223.157 44.52C222.317 44.98 221.327 45.21 220.187 45.21C218.847 45.21 217.627 44.86 216.527 44.16C215.447 43.46 214.587 42.46 213.947 41.16C213.327 39.84 213.017 38.31 213.017 36.57ZM225.137 36.57C225.137 35.49 224.837 34.64 224.237 34.02C223.657 33.4 222.937 33.09 222.077 33.09C221.197 33.09 220.467 33.4 219.887 34.02C219.307 34.62 219.017 35.47 219.017 36.57C219.017 37.65 219.307 38.51 219.887 39.15C220.467 39.77 221.197 40.08 222.077 40.08C222.937 40.08 223.657 39.77 224.237 39.15C224.837 38.53 225.137 37.67 225.137 36.57ZM244.298 39.99V45H241.748C237.448 45 235.298 42.87 235.298 38.61V33.06H233.228V28.17H235.298V24.09H241.208V28.17H244.268V33.06H241.208V38.7C241.208 39.16 241.308 39.49 241.507 39.69C241.728 39.89 242.088 39.99 242.588 39.99H244.298ZM254.824 45.21C253.144 45.21 251.634 44.86 250.294 44.16C248.974 43.46 247.934 42.46 247.174 41.16C246.414 39.86 246.034 38.33 246.034 36.57C246.034 34.83 246.414 33.31 247.174 32.01C247.954 30.71 249.004 29.71 250.324 29.01C251.664 28.31 253.174 27.96 254.854 27.96C256.534 27.96 258.034 28.31 259.354 29.01C260.694 29.71 261.744 30.71 262.504 32.01C263.284 33.31 263.674 34.83 263.674 36.57C263.674 38.31 263.284 39.84 262.504 41.16C261.744 42.46 260.694 43.46 259.354 44.16C258.014 44.86 256.504 45.21 254.824 45.21ZM254.824 40.11C255.644 40.11 256.324 39.81 256.864 39.21C257.424 38.59 257.704 37.71 257.704 36.57C257.704 35.43 257.424 34.56 256.864 33.96C256.324 33.36 255.654 33.06 254.854 33.06C254.054 33.06 253.384 33.36 252.844 33.96C252.304 34.56 252.034 35.43 252.034 36.57C252.034 37.73 252.294 38.61 252.814 39.21C253.334 39.81 254.004 40.11 254.824 40.11ZM271.947 31.14C272.607 30.18 273.407 29.42 274.347 28.86C275.287 28.3 276.297 28.02 277.377 28.02V34.29H275.727C274.447 34.29 273.497 34.54 272.877 35.04C272.257 35.54 271.947 36.41 271.947 37.65V45H266.067V28.17H271.947V31.14ZM286.655 45.21C285.135 45.21 283.775 44.96 282.575 44.46C281.395 43.94 280.455 43.24 279.755 42.36C279.075 41.46 278.695 40.45 278.615 39.33H284.315C284.395 39.87 284.645 40.29 285.065 40.59C285.485 40.89 286.005 41.04 286.625 41.04C287.105 41.04 287.485 40.94 287.765 40.74C288.045 40.54 288.185 40.28 288.185 39.96C288.185 39.54 287.955 39.23 287.495 39.03C287.035 38.83 286.275 38.61 285.215 38.37C284.015 38.13 283.015 37.86 282.215 37.56C281.415 37.26 280.715 36.77 280.115 36.09C279.535 35.41 279.245 34.49 279.245 33.33C279.245 32.33 279.515 31.43 280.055 30.63C280.595 29.81 281.385 29.16 282.425 28.68C283.485 28.2 284.755 27.96 286.235 27.96C288.435 27.96 290.165 28.5 291.425 29.58C292.685 30.66 293.415 32.08 293.615 33.84H288.305C288.205 33.3 287.965 32.89 287.585 32.61C287.225 32.31 286.735 32.16 286.115 32.16C285.635 32.16 285.265 32.25 285.005 32.43C284.765 32.61 284.645 32.86 284.645 33.18C284.645 33.58 284.875 33.89 285.335 34.11C285.795 34.31 286.535 34.52 287.555 34.74C288.775 35 289.785 35.29 290.585 35.61C291.405 35.93 292.115 36.45 292.715 37.17C293.335 37.87 293.645 38.83 293.645 40.05C293.645 41.03 293.355 41.91 292.775 42.69C292.215 43.47 291.405 44.09 290.345 44.55C289.305 44.99 288.075 45.21 286.655 45.21Z" fill="#0A64EB"/>
<defs>
<clipPath id="clip0">
<rect width="36" height="33" fill="white" transform="translate(0 18)"/>
</clipPath>
</defs>
</svg>
